<svg xmlns="http://www.w3.org/2000/svg" width="28" height="28" viewBox="0 0 28 28"><g><g><g><path fill="#fff" d="M4.68 21.76c4.805-5.39 13.244-5.389 18.048 0M13.704 1.606c6.67 0 12.098 5.427 12.098 12.098 0 2.44-.726 4.786-2.072 6.772-5.405-5.814-14.638-5.824-20.052 0a12.042 12.042 0 0 1-2.072-6.772c0-6.671 5.427-12.098 12.098-12.098zm13.704 12.098C27.408 6.13 21.278 0 13.704 0 6.13 0 0 6.129 0 13.704c0 7.507 6.078 13.704 13.704 13.704 7.594 0 13.704-6.163 13.704-13.704z"/></g><g><path fill="#fff" d="M9.85 9.7a3.858 3.858 0 0 1 3.854-3.854A3.858 3.858 0 0 1 17.558 9.7v1.927a3.858 3.858 0 0 1-3.854 3.854 3.858 3.858 0 0 1-3.854-3.854zm3.854 7.708a5.788 5.788 0 0 0 5.781-5.781V9.7a5.788 5.788 0 0 0-5.781-5.782A5.788 5.788 0 0 0 7.923 9.7v1.927a5.788 5.788 0 0 0 5.78 5.781z"/></g></g></g></svg>