<svg xmlns="http://www.w3.org/2000/svg" width="53.292" height="42.959" viewBox="0 0 53.292 42.959">
  <g id="Component_2_10" data-name="Component 2 – 10" transform="translate(0 0)">
    <path id="Path_14" data-name="Path 14" d="M452.232,89.882a11.869,11.869,0,1,0,8-11.19c2.664-15.278,14.578-25.131,3.534-17.022-12.246,8.992-11.55,27.85-11.536,28.2C452.232,89.871,452.232,89.876,452.232,89.882Z" transform="translate(-452.221 -58.76)" fill="#fff"/>
    <path id="Path_15" data-name="Path 15" d="M452.232,89.882a11.869,11.869,0,1,0,8-11.19c2.664-15.278,14.578-25.131,3.534-17.022-12.246,8.992-11.55,27.85-11.536,28.2C452.232,89.871,452.232,89.876,452.232,89.882Z" transform="translate(-422.615 -58.76)" fill="#fff"/>
  </g>
</svg>
