<svg xmlns="http://www.w3.org/2000/svg" width="23" height="28" viewBox="0 0 23 28"><g><g><path fill="#fff" d="M4.83 25.923c-1.423 0-2.578-.942-2.6-2.102L3.732 6.878h2.533v2.298c0 .42.337.756.757.756s.757-.336.757-.756V6.878h7.807v2.298c0 .42.336.756.757.756.42 0 .757-.336.757-.756V6.878h2.533L21.14 23.82c-.023 1.16-1.183 2.102-2.601 2.102zm6.855-24.38a3.905 3.905 0 0 1 3.901 3.816H7.784a3.905 3.905 0 0 1 3.901-3.817zM22.648 23.72L21.08 6.048a.755.755 0 0 0-.751-.69H17.1a5.419 5.419 0 0 0-5.415-5.33A5.419 5.419 0 0 0 6.271 5.36H3.043a.751.751 0 0 0-.751.69L.722 23.72c0 .023-.005.045-.005.068 0 2.012 1.844 3.648 4.114 3.648H18.54c2.27 0 4.114-1.636 4.114-3.648 0-.023 0-.045-.006-.068z"/></g></g></svg>